<svg width="1019" height="301" viewBox="0 0 1019 301" fill="none" xmlns="http://www.w3.org/2000/svg">
<path d="M114.634 197.473C91.7738 197.473 72.8948 195.948 57.9973 192.931C43.0832 189.898 31.3876 184.776 22.9103 177.55C14.433 170.323 8.49389 160.643 5.09301 148.511C1.69214 136.378 0 121.212 0 103.029V94.4601C0 76.2609 1.69214 61.1115 5.09301 48.9787C8.47729 36.8459 14.4164 27.1662 22.9103 19.9395C31.3876 12.7129 43.0832 7.59128 57.9973 4.55808C72.9114 1.52489 91.7904 0 114.634 0C137.478 0 156.374 1.52489 171.271 4.54151C186.185 7.57471 197.881 12.6963 206.358 19.923C214.836 27.1496 220.775 36.8293 224.175 48.9621C227.56 61.0949 229.269 76.2609 229.269 94.4435V103.013C229.269 121.212 227.576 136.378 224.175 148.494C220.775 160.627 214.852 170.307 206.358 177.533C197.881 184.76 186.185 189.882 171.271 192.915C156.357 195.948 137.478 197.456 114.634 197.456V197.473ZM114.634 171.517C132.85 171.517 147.614 170.439 158.962 168.301C170.292 166.163 179.052 162.467 185.206 157.196C191.361 151.942 195.558 144.665 197.798 135.383C200.021 126.118 201.149 114.433 201.149 100.328V97.1121C201.149 82.8411 200.038 71.1227 197.798 61.9236C195.558 52.7412 191.361 45.5145 185.206 40.2437C179.052 34.9895 170.292 31.2767 158.962 29.1386C147.631 27.0004 132.85 25.9231 114.634 25.9231C96.4189 25.9231 81.6541 27.0833 70.3068 29.4038C58.9761 31.7243 50.2168 35.5531 44.062 40.9067C37.9073 46.2604 33.7101 53.5368 31.4705 62.7192C29.2309 71.9017 28.1194 83.3715 28.1194 97.0955V100.311C28.1194 114.4 29.2309 126.085 31.4705 135.367C33.6935 144.649 37.8907 151.909 44.062 157.179C50.2168 162.434 58.9761 166.146 70.3068 168.284C81.6375 170.423 96.4189 171.5 114.634 171.5V171.517Z" fill="white"/>
<path d="M418.341 119.604L424.761 112.112C428.51 117.466 432.525 123.167 436.805 129.234C441.085 135.3 445.465 141.715 449.928 148.494C454.573 155.455 459.433 162.682 464.526 170.174C469.619 177.665 475.011 185.522 480.734 193.726H448.069C444.138 187.478 440.173 181.246 436.158 174.997C432.143 168.748 427.996 162.599 423.699 156.533L393.44 113.72L419.154 120.946H283.368V96.0674H399.064C412.634 96.0674 423.036 94.8243 430.269 92.3215C437.502 89.8187 442.495 85.9899 445.266 80.8186C448.036 75.6472 449.413 68.951 449.413 60.7464V60.216C449.413 52.3761 448.036 46.1274 445.266 41.4865C442.495 36.8455 437.502 33.5471 430.269 31.5913C423.036 29.6354 412.634 28.641 399.064 28.641H281.228L269.715 3.7621H399.064C420.133 3.7621 436.374 5.55219 447.804 9.11578C459.234 12.6794 467.181 18.4806 471.643 26.5028C476.106 34.525 478.346 45.4147 478.346 59.1553V60.216C478.346 72.3488 476.554 82.559 472.987 90.8464C469.42 99.1338 463.299 105.615 454.639 110.239C445.979 114.88 433.885 117.996 418.358 119.604H418.341ZM269.963 20.4696C269.963 15.5634 269.88 9.99425 269.698 3.74553L297.817 8.83401V169.113C297.817 173.754 297.867 177.815 297.95 181.279C298.033 184.759 298.083 188.903 298.083 193.726H269.698C269.88 189.268 269.963 185.074 269.963 181.146V20.4696Z" fill="white"/>
<path d="M873.559 3.74553H926.861C929.897 9.99425 933.829 18.1491 938.64 28.2266C943.467 38.3041 948.809 49.459 954.715 61.6746C960.605 73.8903 966.676 86.4209 972.931 99.2664C979.185 112.112 985.257 124.593 991.146 136.726C997.035 148.858 1002.39 159.864 1007.22 169.776C1012.05 179.671 1015.96 187.66 1019 193.726H987.662L942.406 98.4708C937.23 87.233 932.054 76.2273 926.878 65.4206C921.702 54.6303 916.924 44.5528 912.544 35.188C908.165 25.8232 904.465 17.8507 901.429 11.2374L919.645 30.4973H878.403L896.884 11.2374C893.848 17.8342 890.049 25.873 885.503 35.3206C880.941 44.7849 876.081 54.9452 870.905 65.8183C865.729 76.708 860.37 87.664 854.829 98.736L808.229 193.726H779.031C782.25 187.66 786.347 179.671 791.357 169.776C796.351 159.881 801.842 148.858 807.831 136.726C813.803 124.593 820.024 112.112 826.444 99.2664C832.865 86.4209 839.069 73.8903 845.058 61.6746C851.03 49.459 856.521 38.3041 861.531 28.2266C866.525 18.1491 870.54 9.99425 873.575 3.74553H873.559ZM821.617 151.709V127.096H980.695V151.709H821.617Z" fill="white"/>
<path d="M512.736 18.5821C514.312 20.8363 516.12 23.0076 518.144 25.0132L619.308 126.087C637.971 144.733 668.247 144.733 686.911 126.087L788.074 25.0132C790.098 22.991 791.906 20.8363 793.482 18.5821C806.522 37.2123 804.73 63.0525 788.074 79.6936L686.911 180.767C668.247 199.414 637.971 199.414 619.308 180.767L518.144 79.6936C501.505 63.0525 499.697 37.2123 512.736 18.5821Z" fill="white"/>
<path d="M563.931 3.01731C564.943 4.45932 566.088 5.81846 567.365 7.1113L631.633 71.3223C643.495 83.1733 662.722 83.1733 674.584 71.3223L738.852 7.1113C740.129 5.83504 741.274 4.45932 742.286 3.01731C750.581 14.8518 749.436 31.2774 738.852 41.8356L674.584 106.047C662.722 117.898 643.495 117.898 631.633 106.047L567.365 41.8356C556.781 31.2609 555.636 14.8518 563.931 3.01731Z" fill="white"/>
<path d="M653.118 54.6471C665.24 54.6471 675.066 44.8293 675.066 32.7185C675.066 20.6077 665.24 10.79 653.118 10.79C640.997 10.79 631.17 20.6077 631.17 32.7185C631.17 44.8293 640.997 54.6471 653.118 54.6471Z" fill="white"/>
<path d="M16.0742 300.106V247.829H49.1207V253.945H23.5561V270.669H46.8811V276.636H23.5561V293.957H49.1207V300.09H16.0742V300.106Z" fill="white"/>
<path d="M133.511 300.106V247.829H149.586C155.674 247.829 160.701 248.907 164.682 251.045C168.664 253.183 171.617 256.216 173.541 260.111C175.466 264.006 176.428 268.664 176.428 274.034C176.428 279.404 175.466 284.045 173.541 287.924C171.617 291.802 168.681 294.802 164.716 296.924C160.751 299.045 155.707 300.106 149.586 300.106H133.511ZM140.992 293.841H149.287C154.115 293.841 157.964 293.045 160.8 291.454C163.637 289.863 165.678 287.576 166.889 284.625C168.116 281.658 168.714 278.145 168.714 274.051C168.714 269.957 168.1 266.36 166.889 263.376C165.661 260.393 163.637 258.106 160.8 256.498C157.964 254.907 154.115 254.111 149.287 254.111H140.992V293.841Z" fill="white"/>
<path d="M279.419 300.998C275.736 300.998 272.385 300.269 269.399 298.794C266.413 297.319 264.024 295.081 262.265 292.065C260.507 289.048 259.611 285.203 259.611 280.529V247.81H267.093V280.595C267.093 283.727 267.624 286.313 268.669 288.319C269.714 290.324 271.174 291.833 273.049 292.794C274.923 293.772 277.097 294.252 279.585 294.252C282.073 294.252 284.313 293.772 286.154 292.794C287.996 291.816 289.423 290.324 290.451 288.319C291.48 286.297 291.977 283.727 291.977 280.595V247.81H299.459V280.529C299.459 285.203 298.564 289.048 296.772 292.065C294.98 295.081 292.558 297.319 289.522 298.794C286.486 300.253 283.119 300.998 279.436 300.998H279.419Z" fill="white"/>
<path d="M407.541 301C402.414 301 397.985 299.873 394.269 297.602C390.553 295.331 387.699 292.182 385.676 288.121C383.652 284.061 382.656 279.353 382.656 273.966C382.656 268.58 383.668 263.939 385.676 259.845C387.699 255.767 390.553 252.585 394.269 250.314C397.985 248.043 402.398 246.916 407.541 246.916C413.679 246.916 418.639 248.391 422.455 251.325C426.27 254.259 428.692 258.403 429.738 263.723H421.509C420.763 260.64 419.22 258.171 416.914 256.331C414.608 254.491 411.472 253.563 407.524 253.563C403.99 253.563 400.921 254.392 398.333 256.032C395.745 257.673 393.755 260.01 392.361 263.06C390.968 266.093 390.271 269.74 390.271 273.966C390.271 278.193 390.968 281.839 392.361 284.906C393.755 287.972 395.745 290.309 398.333 291.934C400.921 293.558 403.99 294.353 407.524 294.353C411.456 294.353 414.591 293.475 416.914 291.702C419.236 289.928 420.763 287.525 421.509 284.491H429.738C428.692 289.663 426.27 293.707 422.455 296.624C418.639 299.541 413.679 301 407.541 301Z" fill="white"/>
<path d="M509.068 300.106L528.279 247.829H536.424L555.635 300.106H547.639L532.31 256.796L516.915 300.106H509.068ZM517.728 287.194L519.818 281.211H544.404L546.494 287.194H517.711H517.728Z" fill="white"/>
<path d="M644.289 300.106V253.945H628.811V247.829H667.316V253.945H651.771V300.106H644.289Z" fill="white"/>
<path d="M749.601 300.106V247.829H757.083V300.106H749.601Z" fill="white"/>
<path d="M866.294 301C861.267 301 856.838 299.873 853.022 297.602C849.206 295.331 846.22 292.182 844.047 288.121C841.874 284.06 840.795 279.353 840.795 273.966C840.795 268.579 841.874 263.955 844.047 259.894C846.22 255.833 849.206 252.667 853.022 250.363C856.838 248.076 861.25 246.932 866.294 246.932C871.337 246.932 875.916 248.076 879.748 250.363C883.58 252.651 886.566 255.833 888.673 259.894C890.796 263.955 891.858 268.646 891.858 273.966C891.858 279.287 890.796 284.06 888.673 288.121C886.549 292.182 883.58 295.348 879.748 297.602C875.916 299.873 871.42 301 866.294 301ZM866.377 294.353C869.96 294.353 873.095 293.524 875.799 291.883C878.487 290.243 880.577 287.905 882.037 284.856C883.514 281.823 884.244 278.193 884.244 273.949C884.244 269.706 883.514 266.076 882.037 263.043C880.561 260.01 878.487 257.673 875.799 256.065C873.112 254.441 869.976 253.645 866.377 253.645C862.777 253.645 859.641 254.457 856.954 256.065C854.266 257.69 852.176 260.01 850.666 263.043C849.173 266.076 848.427 269.723 848.427 273.949C848.427 278.176 849.173 281.823 850.666 284.856C852.159 287.889 854.25 290.226 856.954 291.883C859.641 293.524 862.777 294.353 866.377 294.353Z" fill="white"/>
<path d="M975.586 300.106V247.829H983.068L1009.76 287.94V247.829H1017.24V300.106H1009.76L983.068 260.078V300.106H975.586Z" fill="white"/>
</svg>
